<svg width="36" height="36" viewBox="0 0 36 36" fill="none" xmlns="http://www.w3.org/2000/svg">
<path d="M14.6668 26.3333C15.1271 26.3333 15.5002 25.9602 15.5002 25.5C15.5002 25.0398 15.1271 24.6667 14.6668 24.6667C14.2066 24.6667 13.8335 25.0398 13.8335 25.5C13.8335 25.9602 14.2066 26.3333 14.6668 26.3333Z" stroke="#0A0A0A" stroke-width="1.66667" stroke-linecap="round" stroke-linejoin="round"/>
<path d="M23.8333 26.3333C24.2936 26.3333 24.6667 25.9602 24.6667 25.5C24.6667 25.0398 24.2936 24.6667 23.8333 24.6667C23.3731 24.6667 23 25.0398 23 25.5C23 25.9602 23.3731 26.3333 23.8333 26.3333Z" stroke="#0A0A0A" stroke-width="1.66667" stroke-linecap="round" stroke-linejoin="round"/>
<path d="M9.7085 9.70833H11.3752L13.5918 20.0583C13.6731 20.4374 13.8841 20.7762 14.1883 21.0165C14.4925 21.2569 14.8709 21.3836 15.2585 21.375H23.4085C23.7878 21.3744 24.1556 21.2444 24.451 21.0065C24.7465 20.7687 24.9519 20.4371 25.0335 20.0667L26.4085 13.875H12.2668" stroke="#0A0A0A" stroke-width="1.66667" stroke-linecap="round" stroke-linejoin="round"/>
</svg>

